<svg xmlns="http://www.w3.org/2000/svg" viewBox="0 0 32 32">
  <defs>
    <linearGradient id="bg" x1="0" y1="0" x2="1" y2="1">
      <stop offset="0%" stop-color="#137fec"/>
      <stop offset="100%" stop-color="#0ea5e9"/>
    </linearGradient>
  </defs>
  <rect width="32" height="32" rx="6" fill="url(#bg)"/>
  <!-- Compass circle -->
  <circle cx="16" cy="16" r="9" stroke="white" stroke-width="1.2" fill="none" opacity="0.9"/>
  <!-- Compass points -->
  <line x1="16" y1="5" x2="16" y2="8" stroke="white" stroke-width="1.2" stroke-linecap="round"/>
  <line x1="16" y1="24" x2="16" y2="27" stroke="white" stroke-width="1.2" stroke-linecap="round"/>
  <line x1="5" y1="16" x2="8" y2="16" stroke="white" stroke-width="1.2" stroke-linecap="round"/>
  <line x1="24" y1="16" x2="27" y2="16" stroke="white" stroke-width="1.2" stroke-linecap="round"/>
  <!-- Location pin -->
  <path d="M16 11c-1.7 0-3 1.3-3 3 0 2.5 3 5 3 5s3-2.5 3-5c0-1.7-1.3-3-3-3z" fill="white" opacity="0.95"/>
  <circle cx="16" cy="14" r="1.2" fill="url(#bg)"/>
  <!-- Connected people dots -->
  <circle cx="10" cy="12" r="1.3" fill="white" opacity="0.7"/>
  <circle cx="22" cy="12" r="1.3" fill="white" opacity="0.7"/>
  <circle cx="11" cy="21" r="1.3" fill="white" opacity="0.7"/>
  <circle cx="21" cy="21" r="1.3" fill="white" opacity="0.7"/>
</svg>
